<svg id="logo" xmlns="http://www.w3.org/2000/svg" width="305.052" height="55.697" viewBox="0 0 305.052 55.697">
  <g id="sub" transform="translate(158.454 44.634)">
    <path id="Path_217" data-name="Path 217" d="M306.922,85.193a4.77,4.77,0,0,1,1.67.287,4.048,4.048,0,0,1,1.345.811,3.824,3.824,0,0,1,.906,1.269,4.214,4.214,0,0,1,0,3.29,3.834,3.834,0,0,1-.906,1.259,3.891,3.891,0,0,1-1.355.8,4.945,4.945,0,0,1-1.66.277h-4.654v2.556H300.78V85.193Zm-4.654,6.62H306.9a2.917,2.917,0,0,0,2.012-.686,2.445,2.445,0,0,0,.772-1.927,2.488,2.488,0,0,0-.772-1.917,2.846,2.846,0,0,0-2.012-.715h-4.636Z" transform="translate(-300.78 -84.946)" fill="#fff"/>
    <path id="Path_218" data-name="Path 218" d="M325.9,85.194v4.388h7.573V85.194h1.507V95.743h-1.507V90.955H325.9v4.788h-1.488V85.194Z" transform="translate(-311.962 -84.947)" fill="#fff"/>
    <path id="Path_219" data-name="Path 219" d="M360.552,90.256a5.62,5.62,0,0,1-.448,2.28,5.133,5.133,0,0,1-1.241,1.745,5.506,5.506,0,0,1-1.869,1.116,7.067,7.067,0,0,1-4.635,0,5.492,5.492,0,0,1-1.87-1.116,5.13,5.13,0,0,1-1.24-1.745,6.014,6.014,0,0,1,0-4.559,5.14,5.14,0,0,1,1.24-1.745,5.509,5.509,0,0,1,1.87-1.116,7.076,7.076,0,0,1,4.635,0,5.523,5.523,0,0,1,1.869,1.116,5.143,5.143,0,0,1,1.241,1.745,5.622,5.622,0,0,1,.448,2.279m-10.263,0a4.363,4.363,0,0,0,.344,1.774,3.793,3.793,0,0,0,.935,1.317,4.11,4.11,0,0,0,1.393.82,5.3,5.3,0,0,0,3.434,0,4.013,4.013,0,0,0,1.382-.82,3.853,3.853,0,0,0,.925-1.317,4.743,4.743,0,0,0,0-3.548,3.863,3.863,0,0,0-.925-1.316,4.013,4.013,0,0,0-1.382-.82,5.3,5.3,0,0,0-3.434,0,4.11,4.11,0,0,0-1.393.82,3.8,3.8,0,0,0-.935,1.316,4.366,4.366,0,0,0-.344,1.774" transform="translate(-323.503 -84.725)" fill="#fff"/>
    <path id="Path_220" data-name="Path 220" d="M383.855,85.194v1.374h-4.674v9.175h-1.507V86.568H373V85.194Z" transform="translate(-334.954 -84.947)" fill="#fff"/>
    <path id="Path_221" data-name="Path 221" d="M407.284,90.256a5.619,5.619,0,0,1-.448,2.28,5.13,5.13,0,0,1-1.241,1.745,5.5,5.5,0,0,1-1.869,1.116,7.067,7.067,0,0,1-4.635,0,5.493,5.493,0,0,1-1.87-1.116,5.133,5.133,0,0,1-1.24-1.745,6.012,6.012,0,0,1,0-4.559,5.143,5.143,0,0,1,1.24-1.745,5.51,5.51,0,0,1,1.87-1.116,7.076,7.076,0,0,1,4.635,0,5.52,5.52,0,0,1,1.869,1.116,5.14,5.14,0,0,1,1.241,1.745,5.621,5.621,0,0,1,.448,2.279m-10.263,0a4.364,4.364,0,0,0,.343,1.774,3.791,3.791,0,0,0,.935,1.317,4.108,4.108,0,0,0,1.393.82,5.293,5.293,0,0,0,3.433,0,4.01,4.01,0,0,0,1.383-.82,3.855,3.855,0,0,0,.925-1.317,4.746,4.746,0,0,0,0-3.548,3.865,3.865,0,0,0-.925-1.316,4.01,4.01,0,0,0-1.383-.82,5.293,5.293,0,0,0-3.433,0,4.108,4.108,0,0,0-1.393.82,3.8,3.8,0,0,0-.935,1.316,4.367,4.367,0,0,0-.343,1.774" transform="translate(-345.616 -84.725)" fill="#fff"/>
    <path id="Path_222" data-name="Path 222" d="M421.149,85.194l3.949,9.157h1.011l3.968-9.157h1.66l-4.693,10.549h-2.9l-4.636-10.549Z" transform="translate(-356.961 -84.947)" fill="#fff"/>
    <path id="Path_223" data-name="Path 223" d="M456.138,90.256a5.62,5.62,0,0,1-.448,2.28,5.133,5.133,0,0,1-1.241,1.745A5.506,5.506,0,0,1,452.58,95.4a7.067,7.067,0,0,1-4.635,0,5.492,5.492,0,0,1-1.87-1.116,5.129,5.129,0,0,1-1.24-1.745,6.013,6.013,0,0,1,0-4.559,5.139,5.139,0,0,1,1.24-1.745,5.509,5.509,0,0,1,1.87-1.116,7.076,7.076,0,0,1,4.635,0,5.522,5.522,0,0,1,1.869,1.116,5.143,5.143,0,0,1,1.241,1.745,5.622,5.622,0,0,1,.448,2.279m-10.263,0a4.365,4.365,0,0,0,.344,1.774,3.793,3.793,0,0,0,.935,1.317,4.111,4.111,0,0,0,1.393.82,5.3,5.3,0,0,0,3.434,0,4.014,4.014,0,0,0,1.382-.82,3.856,3.856,0,0,0,.925-1.317,4.745,4.745,0,0,0,0-3.548,3.866,3.866,0,0,0-.925-1.316,4.014,4.014,0,0,0-1.382-.82,5.3,5.3,0,0,0-3.434,0,4.112,4.112,0,0,0-1.393.82,3.8,3.8,0,0,0-.935,1.316,4.369,4.369,0,0,0-.344,1.774" transform="translate(-368.733 -84.725)" fill="#fff"/>
    <path id="Path_224" data-name="Path 224" d="M472.511,85.194V94.37h7.9v1.373h-9.385V85.194Z" transform="translate(-381.337 -84.947)" fill="#fff"/>
    <path id="Path_225" data-name="Path 225" d="M498.125,85.194v1.374h-4.674v9.175h-1.507V86.568H487.27V85.194Z" transform="translate(-389.025 -84.947)" fill="#fff"/>
    <path id="Path_226" data-name="Path 226" d="M515.287,85.194l4.483,10.549H518.2l-.744-1.717h-7.878l-.744,1.717h-1.6l4.6-10.549Zm-5.132,7.459h6.677l-2.518-6.1h-1.565Z" transform="translate(-398.473 -84.947)" fill="#fff"/>
    <rect id="Rectangle_133" data-name="Rectangle 133" width="1.488" height="10.549" transform="translate(123.219 0.247)" fill="#fff"/>
    <path id="Path_227" data-name="Path 227" d="M544.153,85.194v4.255h4.255l2.938-4.255h1.736l-3.338,4.865,3.624,5.685h-1.774l-3.128-4.922h-4.312v4.922h-1.488V85.194Z" transform="translate(-415.237 -84.947)" fill="#fff"/>
  </g>
  <g id="main" transform="translate(56.9)">
    <path id="Path_216" data-name="Path 216" d="M568.616,0a3.7,3.7,0,1,1-3.733,3.724A3.692,3.692,0,0,1,568.616,0m0,6.87a3.122,3.122,0,0,0,3.136-3.186,3.136,3.136,0,1,0-6.272.04,3.112,3.112,0,0,0,3.136,3.146m-1.384-5.286h1.574c1.025,0,1.513.378,1.513,1.234a1.112,1.112,0,0,1-1.135,1.165l1.234,1.892h-.647L568.6,4.033h-.766V5.874h-.6Zm.6,1.911h.737c.6,0,1.154-.03,1.154-.707,0-.6-.508-.667-.965-.667h-.926Z" transform="translate(-324.197)" fill="#fff"/>
    <path id="Path_228" data-name="Path 228" d="M324.408,29.354a15.94,15.94,0,0,1-.648,4.7,9.528,9.528,0,0,1-1.971,3.591,8.962,8.962,0,0,1-3.375,2.322,12.658,12.658,0,0,1-4.807.838,12.815,12.815,0,0,1-4.861-.838,8.95,8.95,0,0,1-3.375-2.322,9.513,9.513,0,0,1-1.971-3.591,15.939,15.939,0,0,1-.648-4.7V14.016h-4.212V29.3a19.02,19.02,0,0,0,1.053,6.589,12.5,12.5,0,0,0,7.777,7.75,19.978,19.978,0,0,0,12.476,0,12.5,12.5,0,0,0,7.777-7.75,19.019,19.019,0,0,0,1.053-6.589V14.016h-4.267Z" transform="translate(-198.166 -6.632)" fill="#fff"/>
    <path id="Path_229" data-name="Path 229" d="M393.17,38.319l-21.711-24.3h-4.644V43.881h4.159V19.524L392.63,43.881h4.7V14.015H393.17Z" transform="translate(-230.473 -6.632)" fill="#fff"/>
    <path id="Path_230" data-name="Path 230" d="M135.2,28.885a14.041,14.041,0,0,0-7.129-2.646L118.561,25.1q-1.243-.163-2.268-.378a5.728,5.728,0,0,1-1.755-.648,3.186,3.186,0,0,1-1.134-1.107,3.262,3.262,0,0,1-.4-1.7,4.042,4.042,0,0,1,.432-1.836,3.835,3.835,0,0,1,1.485-1.512,9.448,9.448,0,0,1,2.862-1.053,21.389,21.389,0,0,1,4.564-.405,25.6,25.6,0,0,1,6.562.756,22,22,0,0,1,4.755,1.909l2.855-2.617.032-.048a19.276,19.276,0,0,0-6.8-3.051,35.307,35.307,0,0,0-7.4-.729,25.471,25.471,0,0,0-5.212.513,14.559,14.559,0,0,0-4.294,1.566,8.533,8.533,0,0,0-2.916,2.673,6.844,6.844,0,0,0-1.08,3.888,7.57,7.57,0,0,0,.648,3.295,6.361,6.361,0,0,0,1.863,2.3,9.218,9.218,0,0,0,2.943,1.485,19.472,19.472,0,0,0,3.835.756l9.613,1.08a8.725,8.725,0,0,1,4.374,1.35,3.773,3.773,0,0,1,1.458,3.24,4.363,4.363,0,0,1-2.673,4.1,16.281,16.281,0,0,1-7.264,1.35,31.852,31.852,0,0,1-3.834-.217,22.944,22.944,0,0,1-3.43-.675,19.839,19.839,0,0,1-3.187-1.188,21.257,21.257,0,0,1-2.133-1.175l-3.044,2.79a22.743,22.743,0,0,0,6.879,3.246,30.625,30.625,0,0,0,7.939.945,31.824,31.824,0,0,0,6.1-.54,15,15,0,0,0,4.7-1.674,8.5,8.5,0,0,0,3.024-2.889,7.834,7.834,0,0,0,1.08-4.186,7.072,7.072,0,0,0-2.538-5.833" transform="translate(-108.01 -6.001)" fill="#fff"/>
    <path id="Path_231" data-name="Path 231" d="M259.5,34.934a13.375,13.375,0,0,1-4.617,3.888,14.583,14.583,0,0,1-6.616,1.35,13.059,13.059,0,0,1-4.915-.891,11.451,11.451,0,0,1-3.807-2.458,11.024,11.024,0,0,1-2.484-3.754,12.545,12.545,0,0,1-.891-4.78,12.836,12.836,0,0,1,.864-4.807,10.409,10.409,0,0,1,6.237-6.076,14.192,14.192,0,0,1,5-.837,15.057,15.057,0,0,1,6.616,1.323A12.732,12.732,0,0,1,259.5,21.7l.051-.03,2.87-2.63a15.332,15.332,0,0,0-5.513-4.551,18.961,18.961,0,0,0-8.479-1.809,19.3,19.3,0,0,0-6.535,1.08,15.278,15.278,0,0,0-5.239,3.106,14.428,14.428,0,0,0-3.483,4.915,16.016,16.016,0,0,0-1.269,6.508,16.462,16.462,0,0,0,1.242,6.562,14.358,14.358,0,0,0,8.669,8.074,19.686,19.686,0,0,0,6.616,1.08,18.559,18.559,0,0,0,8.587-1.836,16.115,16.115,0,0,0,5.428-4.548l-2.919-2.674Z" transform="translate(-166.636 -6.001)" fill="#fff"/>
    <path id="Path_232" data-name="Path 232" d="M178.616,30.472h19.421V26.636H178.616V17.83h22.151V13.993H174.4V38.044l4.214-3.862Z" transform="translate(-139.426 -6.621)" fill="#fff"/>
    <path id="Path_233" data-name="Path 233" d="M174.4,67.192v.021h27.176v-3.89H178.624Z" transform="translate(-139.425 -29.964)" fill="#fff"/>
    <path id="Path_234" data-name="Path 234" d="M462.371,17.964a15.492,15.492,0,0,0-5.078-2.944,18.2,18.2,0,0,0-6.133-1.027H436.411V38.048l4.214-3.862V17.829H450.89a14.844,14.844,0,0,1,4.97.783,10.716,10.716,0,0,1,3.782,2.242,10.077,10.077,0,0,1,2.431,3.512,11.594,11.594,0,0,1,.864,4.538,11.535,11.535,0,0,1-.864,4.565,10.131,10.131,0,0,1-2.431,3.484,10.717,10.717,0,0,1-3.782,2.243,14.844,14.844,0,0,1-4.97.783H440.638l-4.227,3.873v.017H451.16a18.09,18.09,0,0,0,6.051-1.027,15.409,15.409,0,0,0,5.106-2.944A14.268,14.268,0,0,0,467.152,28.9a14.551,14.551,0,0,0-1.3-6.267,14.135,14.135,0,0,0-3.485-4.673" transform="translate(-263.406 -6.621)" fill="#fff"/>
    <path id="Path_235" data-name="Path 235" d="M535.1,21.872a14.932,14.932,0,0,0-1.937-3.246L530.1,21.433A11.827,11.827,0,0,1,531.13,23.3a12.381,12.381,0,0,1,.973,5.024,12.378,12.378,0,0,1-.973,5.025,10.964,10.964,0,0,1-2.62,3.728,11.368,11.368,0,0,1-3.917,2.323,14.987,14.987,0,0,1-9.725,0,11.649,11.649,0,0,1-3.944-2.323,10.779,10.779,0,0,1-2.647-3.728,12.374,12.374,0,0,1-.973-5.025,12.376,12.376,0,0,1,.973-5.024,10.8,10.8,0,0,1,2.647-3.728,11.675,11.675,0,0,1,3.944-2.323,15,15,0,0,1,9.725,0,11.953,11.953,0,0,1,2.437,1.19l3-2.752a16.181,16.181,0,0,0-3.738-1.922,20,20,0,0,0-13.129,0,15.639,15.639,0,0,0-5.294,3.16,14.537,14.537,0,0,0-3.512,4.944,15.878,15.878,0,0,0-1.27,6.456,15.877,15.877,0,0,0,1.27,6.457,14.527,14.527,0,0,0,3.512,4.944,15.606,15.606,0,0,0,5.294,3.16,20,20,0,0,0,13.129,0,15.631,15.631,0,0,0,5.295-3.16,14.557,14.557,0,0,0,3.512-4.944,15.892,15.892,0,0,0,1.27-6.457,15.893,15.893,0,0,0-1.27-6.456" transform="translate(-294.957 -5.991)" fill="#fff"/>
  </g>
  <g id="symbmol" transform="translate(0 0.033)">
    <path id="Path_236" data-name="Path 236" d="M37.778,8.38,4.38,36.287A22.536,22.536,0,0,0,7.9,41.47l31.571-31.7q-.811-.733-1.7-1.388" transform="translate(-2.073 -3.998)" fill="#19d7cd"/>
    <path id="Path_237" data-name="Path 237" d="M45.617,16.977,11.288,45.662a22.278,22.278,0,0,0,4.85,3.967L46.85,18.79q-.572-.936-1.233-1.813" transform="translate(-5.342 -8.066)" fill="#19d7cd"/>
    <path id="Path_238" data-name="Path 238" d="M60.542,40.871,33.3,63.635a22.278,22.278,0,0,0,9.043.147l17.831-17.9a22.323,22.323,0,0,0,.369-5.007" transform="translate(-15.757 -19.373)" fill="#19d7cd"/>
    <path id="Path_239" data-name="Path 239" d="M53.216,27.7,20.79,54.793a22.392,22.392,0,0,0,5.823,2.43c.185.048.372.086.558.13L54.035,30.377a22.419,22.419,0,0,0-.819-2.679" transform="translate(-9.838 -13.139)" fill="#19d7cd"/>
    <path id="Path_240" data-name="Path 240" d="M29.638,2.23.42,26.645a22.391,22.391,0,0,0,2.007,6.571L32.245,3.274A22.416,22.416,0,0,0,29.638,2.23" transform="translate(-0.199 -1.088)" fill="#19d7cd"/>
    <path id="Path_241" data-name="Path 241" d="M1.758,16.961,16.811,1.846A22.385,22.385,0,0,0,1.758,16.961" transform="translate(-0.832 -0.906)" fill="#19d7cd"/>
    <path id="Path_242" data-name="Path 242" d="M20.249.163.855,16.369c-.044.157-.094.311-.135.47A22.334,22.334,0,0,0,.2,25.408L25.248.251a22.245,22.245,0,0,0-5-.089" transform="translate(0 -0.062)" fill="#19d7cd"/>
    <path id="Path_243" data-name="Path 243" d="M67.316,58.3,50.944,71.981A22.411,22.411,0,0,0,67.316,58.3" transform="translate(-24.106 -27.62)" fill="#19d7cd"/>
  </g>
</svg>
